<svg xmlns="http://www.w3.org/2000/svg" width="32" height="32" viewBox="0 0 32 32"><path fill="#0188f5" d="M16 0a16 16 0 1 1 0 32 16 16 0 0 1 0-32zM6 21.77h5.96c2.23 0 4.35-1.02 4.35-3.39 0-1.46-.76-2.56-2.26-2.97 1.07-.49 1.67-1.29 1.67-2.44 0-2.18-1.58-2.97-3.93-2.97H6zm2.47-9.8h2.77c.97 0 1.86.23 1.86 1.35 0 .98-.7 1.39-1.65 1.39H8.47zm0 4.69h3.18c1.16 0 1.87.47 1.87 1.67 0 1.21-.85 1.54-1.92 1.54H8.47zm17.36 1.17c.17-2.6-1.3-4.76-4.33-4.76a4.37 4.37 0 0 0-4.57 4.47c0 2.63 1.76 4.46 4.57 4.46a4.29 4.29 0 0 0 4.28-3.05h-2.16c-.15.53-1.05 1.3-2.03 1.3-1.36 0-2.12-.94-2.19-2.42zm-6.43-1.52c.03-.66.48-1.49 2.03-1.49 1.19 0 1.73.31 1.95 1.49zM24 12v-1h-5v1z"/><path fill="#ebebeb" d="M16 0a16 16 0 1 1 0 32 16 16 0 0 1 0-32zM6 21.77h5.96c2.23 0 4.35-1.02 4.35-3.39 0-1.46-.76-2.56-2.26-2.97 1.07-.49 1.67-1.29 1.67-2.44 0-2.18-1.58-2.97-3.93-2.97H6zm2.47-9.8h2.77c.97 0 1.86.23 1.86 1.35 0 .98-.7 1.39-1.65 1.39H8.47zm0 4.69h3.18c1.16 0 1.87.47 1.87 1.67 0 1.21-.85 1.54-1.92 1.54H8.47zm17.36 1.17c.17-2.6-1.3-4.76-4.33-4.76a4.37 4.37 0 0 0-4.57 4.47c0 2.63 1.76 4.46 4.57 4.46a4.29 4.29 0 0 0 4.28-3.05h-2.16c-.15.53-1.05 1.3-2.03 1.3-1.36 0-2.12-.94-2.19-2.42zm-6.43-1.52c.03-.66.48-1.49 2.03-1.49 1.19 0 1.73.31 1.95 1.49zM24 12v-1h-5v1z"/></svg>