<svg xmlns="http://www.w3.org/2000/svg" width="32" height="32" viewBox="0 0 32 32"><path fill="#4e9edc" d="M16 0a16 16 0 1 1 0 32 16 16 0 0 1 0-32zm7.78 10.84a4.03 4.03 0 0 0 1.62-2.23c-.71.46-1.5.8-2.35.98a3.52 3.52 0 0 0-2.69-1.28c-2.04 0-3.69 1.81-3.69 4.04 0 .32.03.62.09.92a10.23 10.23 0 0 1-7.61-4.22 4.3 4.3 0 0 0 1.14 5.39c-.6-.02-1.17-.2-1.67-.5v.05a3.96 3.96 0 0 0 2.96 3.96 3.5 3.5 0 0 1-1.67.07 3.76 3.76 0 0 0 3.45 2.8A6.96 6.96 0 0 1 7.9 22.5a9.83 9.83 0 0 0 5.66 1.81c6.79 0 10.5-6.15 10.5-11.49l-.01-.52a7.8 7.8 0 0 0 1.85-2.1c-.67.33-1.38.54-2.12.64z"/><path fill="#ebebeb" d="M16 0a16 16 0 1 1 0 32 16 16 0 0 1 0-32zm7.78 10.84a4.03 4.03 0 0 0 1.62-2.23c-.71.46-1.5.8-2.35.98a3.52 3.52 0 0 0-2.69-1.28c-2.04 0-3.69 1.81-3.69 4.04 0 .32.03.62.09.92a10.23 10.23 0 0 1-7.61-4.22 4.3 4.3 0 0 0 1.14 5.39c-.6-.02-1.17-.2-1.67-.5v.05a3.96 3.96 0 0 0 2.96 3.96 3.5 3.5 0 0 1-1.67.07 3.76 3.76 0 0 0 3.45 2.8A6.96 6.96 0 0 1 7.9 22.5a9.83 9.83 0 0 0 5.66 1.81c6.79 0 10.5-6.15 10.5-11.49l-.01-.52a7.8 7.8 0 0 0 1.85-2.1c-.67.33-1.38.54-2.12.64z"/></svg>