<svg xmlns="http://www.w3.org/2000/svg" width="32" height="33" viewBox="0 0 32 33"><path fill="#da4935" d="M16 0a16 16 0 1 1-1.64 31.93c2.56-1.26 3.89-3.45 3.89-5.63 0-2.45-1.37-3.65-2.88-4.96l-1.23-1c-.37-.31-.89-.74-.89-1.52s.52-1.28.96-1.74c1.44-1.17 2.87-2.41 2.87-5.03a6 6 0 0 0-2.43-4.78h2.13l2.18-1.28h-7.04c-1.85 0-4.17.28-6.13 1.95a6.46 6.46 0 0 0-2.18 4.75 5.5 5.5 0 0 0 5.67 5.56c.35 0 .72-.03 1.1-.07-.17.43-.34.78-.34 1.39 0 1.09.54 1.77 1.02 2.41-1.54.1-4.41.28-6.53 1.63-.73.45-1.28.97-1.68 1.51A16 16 0 0 1 16 0zm-3.77 23c2.6 1.92 3.72 2.87 3.72 4.68 0 1.99-1.42 3.5-4.1 3.78a15.97 15.97 0 0 1-6.93-3.91 3.88 3.88 0 0 1-.02-.36c0-2.52 2.19-3.37 2.95-3.65a13.08 13.08 0 0 1 4.38-.54zm.99-6.73c-.55.57-1.47.99-2.33.99-2.94 0-4.27-3.93-4.27-6.31 0-.92.17-1.88.75-2.62a3.15 3.15 0 0 1 2.39-1.17c2.84 0 4.31 3.97 4.31 6.52 0 .64-.07 1.77-.85 2.59zM24 14v-3h3V9h-3V6h-2v3h-3v2h3v3z"/><path fill="#ebebeb" d="M16 0a16 16 0 1 1-1.64 31.93c2.56-1.26 3.89-3.45 3.89-5.63 0-2.45-1.37-3.65-2.88-4.96l-1.23-1c-.37-.31-.89-.74-.89-1.52s.52-1.28.96-1.74c1.44-1.17 2.87-2.41 2.87-5.03a6 6 0 0 0-2.43-4.78h2.13l2.18-1.28h-7.04c-1.85 0-4.17.28-6.13 1.95a6.46 6.46 0 0 0-2.18 4.75 5.5 5.5 0 0 0 5.67 5.56c.35 0 .72-.03 1.1-.07-.17.43-.34.78-.34 1.39 0 1.09.54 1.77 1.02 2.41-1.54.1-4.41.28-6.53 1.63-.73.45-1.28.97-1.68 1.51A16 16 0 0 1 16 0zm-3.77 23c2.6 1.92 3.72 2.87 3.72 4.68 0 1.99-1.42 3.5-4.1 3.78a15.97 15.97 0 0 1-6.93-3.91 3.88 3.88 0 0 1-.02-.36c0-2.52 2.19-3.37 2.95-3.65a13.08 13.08 0 0 1 4.38-.54zm.99-6.73c-.55.57-1.47.99-2.33.99-2.94 0-4.27-3.93-4.27-6.31 0-.92.17-1.88.75-2.62a3.15 3.15 0 0 1 2.39-1.17c2.84 0 4.31 3.97 4.31 6.52 0 .64-.07 1.77-.85 2.59zM24 14v-3h3V9h-3V6h-2v3h-3v2h3v3z"/></svg>